<svg id="Group_7" data-name="Group 7" xmlns="http://www.w3.org/2000/svg" width="99" height="99" viewBox="0 0 99 99">
  <path id="Path_18" data-name="Path 18" d="M548,46.5A49.5,49.5,0,1,0,597.5,96,49.556,49.556,0,0,0,548,46.5Zm-14.135,85.259c.225-.365.452-.73.681-1.092,1.3-2.062,2.587-4.14,3.929-6.179,1.425-2.159,2.906-4.285,4.376-6.417a13.4,13.4,0,0,1,2.906-2.966,3.044,3.044,0,0,1,.391.416c.349.551.7,1.1,1.018,1.671.578,1.033,1.132,2.075,1.7,3.111.34.614.66,1.243,1.045,1.833.756,1.157,1.578,2.274,2.319,3.439a33.4,33.4,0,0,0,2.177,3.514,1.11,1.11,0,0,1,.114.238c.268.515.512,1.042.807,1.542q.753,1.279,1.512,2.555a38.257,38.257,0,0,1-22.976-1.665Zm31.265-1.337c-.071-.09-.137-.184-.21-.273-1.488-1.824-3.068-3.58-4.4-5.516a6.6,6.6,0,0,0-2.153-1.861.9.9,0,0,1-.5-.843,7.251,7.251,0,0,0-.22-1.593,23.326,23.326,0,0,0-.885-2.361c-.25-.6-.594-1.156-.856-1.75a12.623,12.623,0,0,1-.514-1.43,14.309,14.309,0,0,1-.759-2.767c-.012-.1-.118-.2-.19-.289-.163-.2-.129-.374.117-.5a2.207,2.207,0,0,1,.3-.093c-.058-.154-.1-.277-.154-.4a7.847,7.847,0,0,1-.325-.774c-.214-.72-.4-1.445-.6-2.168a21.048,21.048,0,0,1-.446-4.08c-.06-.777-.012-1.563-.1-2.337a2.943,2.943,0,0,1,.255-1.716,1.182,1.182,0,0,0,.136-.449c.084-.985.2-1.972.217-2.96s-.057-1.948-.087-2.921a1.894,1.894,0,0,1,.033-.256c.1-.671.231-1.34.28-2.014a10.851,10.851,0,0,0-.41-3.15,9.19,9.19,0,0,0-1.075-2.451,2.352,2.352,0,0,1-.343-1.187,3.2,3.2,0,0,0-.885-2.3c-.274-.283-.485-.617-.759-.9a.609.609,0,0,1-.076-.853,5.349,5.349,0,0,0,.476-.764.965.965,0,0,1,.681-.561c.349-.108.707-.192,1.063-.295.478-.135.6-.331.433-.771a1.088,1.088,0,0,1-.006-.7,5.359,5.359,0,0,0,.127-1.1c.012-.22.015-.4.265-.521.476-.232.494-.319.192-.744-.213-.3-.46-.59-.665-.9-.271-.4-.093-.7.422-.744.186-.015.373-.057.557-.087.015-.043.027-.082.042-.124-.223-.2-.446-.394-.672-.59a1.323,1.323,0,0,1-.617-1.268,1.711,1.711,0,0,0-.193-1.108.685.685,0,0,1-.045-.443,5.276,5.276,0,0,0,0-2.279c-.1-.572-.415-.735-.982-.512a3.049,3.049,0,0,0-.439.229c-.747.452-1.5.9-2.241,1.361a13.513,13.513,0,0,1-2.616,1.37,6.458,6.458,0,0,0-1.75.988,12.417,12.417,0,0,1-2.876,1.761,4,4,0,0,0-.719.467.8.8,0,0,0,.864.452c.346-.055.693-.1,1.036-.172.373-.072.433-.057.6.277.112.22.208.446.316.666a5,5,0,0,1,.362.749,3.063,3.063,0,0,0,.746,1.268,2.148,2.148,0,0,1,.335,2.246c-.226.437-.416.889-.645,1.322a.806.806,0,0,1-.3.259c-.2.127-.506.19-.587.356a4.27,4.27,0,0,1-1.063,1.316.594.594,0,0,0-.132.168c-.38.735-.771,1.467-1.124,2.213A6.612,6.612,0,0,0,541,85.105a12.875,12.875,0,0,0-.422,3.4,3.35,3.35,0,0,1-.174.913c-.142.466-.362.912-.464,1.385a1.383,1.383,0,0,1-.419.816,2.5,2.5,0,0,0-.879,1.418.925.925,0,0,1-.542.629.9.9,0,0,0-.539.741.824.824,0,0,1-.2.416c-.18.217-.412.4-.587.623a2.842,2.842,0,0,0-.485.741c-.307.855-.548,1.731-.858,2.583-.509,1.4-1.015,2.8-1.584,4.177-.466,1.132-1.024,2.234-1.535,3.352-.082.18-.139.37-.214.569a4.952,4.952,0,0,1,1.072.012c.894.21,1.776.457,2.656.725.5.151.515.217.524.726,0,.114.018.229.03.379.217,0,.4-.009.584,0,.1.006.274.013.307.073.2.358.461.262.753.135a1.2,1.2,0,0,1,.376-.075c.524-.045.663.093.491.563-.238.654-.515,1.295-.786,1.939-.256.6-.569,1.172-.78,1.78a6.021,6.021,0,0,1-.789,1.6c-.123.169-.292.37-.283.551a1.624,1.624,0,0,1-.831,1.388,2.514,2.514,0,0,0-.424.413c-.795.984-1.633,1.945-2.364,2.969a45.642,45.642,0,0,0-4.108,7.311c-.217.464-.43.929-.644,1.394a38.46,38.46,0,1,1,37.248,1.658Z" transform="translate(-498.5 -46.5)" fill="#fe0"/>
</svg>
