<svg xmlns="http://www.w3.org/2000/svg" width="83.741" height="72.095" viewBox="0 0 83.741 72.095">
  <g id="Group_110" data-name="Group 110" transform="translate(-197.294 -59.709)">
    <path id="Path_68" data-name="Path 68" d="M11.192-21.025V0H7.919V-21.025H.295v-2.945H19.16v2.945ZM37.4.327,25.018-17.2V0H21.909V-23.971h1.309L35.277-7.4V-23.971h3.109V.327ZM43.867,0V-23.971h3.272V0ZM5.727,17.728v9.228H2.454V2.986q3.714-.164,4.483-.164,10.439,0,10.439,6.987,0,8.083-9.228,8.083Q7.592,17.892,5.727,17.728Zm0-11.8v8.852q2.078.164,2.193.164,6.087,0,6.087-4.794,0-4.385-6.5-4.385A13.178,13.178,0,0,0,5.727,5.931Zm14.268,8.836a14.159,14.159,0,0,1,2.61-8.7,8.331,8.331,0,0,1,7.044-3.5q4.99,0,7.649,3.223t2.659,8.983q0,5.907-2.667,9.253a9.2,9.2,0,0,1-7.641,3.346,8.272,8.272,0,0,1-7.093-3.534A15.07,15.07,0,0,1,19.995,14.766Zm3.436,0a13.387,13.387,0,0,0,1.628,6.888,5.076,5.076,0,0,0,4.59,2.765,5.834,5.834,0,0,0,5.113-2.536,12.368,12.368,0,0,0,1.759-7.118q0-9.261-6.872-9.261a5.156,5.156,0,0,0-4.63,2.487A12.5,12.5,0,0,0,23.431,14.766ZM43.72,26.956V2.986h3.272V24.011H57.824v2.945Zm30.27,0-6.4-10.292q-1.1,0-3.469-.164V26.956H60.851V2.986q.18,0,2.544-.123t3.444-.123q8.639,0,8.639,6.872a6.5,6.5,0,0,1-1.391,4.066,5.781,5.781,0,0,1-3.305,2.25l6.954,11.028ZM64.123,5.931v7.788a16.648,16.648,0,0,0,2.291.164,7.556,7.556,0,0,0,4.287-.949,3.871,3.871,0,0,0,1.342-3.387,3.135,3.135,0,0,0-1.44-2.9,8.983,8.983,0,0,0-4.549-.884Q65.563,5.767,64.123,5.931Zm16.64,21.025V2.986h3.272V26.956Z" transform="translate(197 83.679)" fill="#fe0"/>
    <path id="Path_69" data-name="Path 69" d="M6.557,0,5.882-2.063H2.243L1.522,0H.027L4-9.915h.354L8.039,0ZM4.113-7.351,2.6-3.045H5.5ZM10.236-.394V2.8H8.967V-7.151h1.269v.588a2.374,2.374,0,0,1,1.743-.721,3.016,3.016,0,0,1,2.37.948A4.042,4.042,0,0,1,15.2-3.559,4.032,4.032,0,0,1,14.342-.9,3.025,3.025,0,0,1,11.872.134a3.292,3.292,0,0,1-.971-.16A1.287,1.287,0,0,1,10.236-.394Zm0-5.215v4.166a1.136,1.136,0,0,0,.507.344,1.932,1.932,0,0,0,.754.164q2.364,0,2.364-2.671A2.923,2.923,0,0,0,13.3-5.589a2.3,2.3,0,0,0-1.8-.628,1.573,1.573,0,0,0-.654.187A2.152,2.152,0,0,0,10.236-5.609Zm6.45,3.585v-8.059h1.269v7.845a1.223,1.223,0,0,0,.331.9A1.169,1.169,0,0,0,19.149-1V.134Q16.686.134,16.686-2.023Zm5.241-7.832a.759.759,0,0,1,.558.23.752.752,0,0,1,.23.551.759.759,0,0,1-.23.558.759.759,0,0,1-.558.23.752.752,0,0,1-.551-.23.759.759,0,0,1-.23-.558.754.754,0,0,1,.227-.554A.754.754,0,0,1,21.927-9.855ZM21.233,0V-6.083h-.982V-7.151H22.5V0Zm7.905,0L26.895-3.579,25.786-2.437V0H24.518V-10.082h1.269v6.256l2.738-3.325h1.482l-2.29,2.717L30.513,0Zm6.316-.821a2.8,2.8,0,0,1-2.33.955,2.006,2.006,0,0,1-1.459-.611A2.051,2.051,0,0,1,31.048-2,2.267,2.267,0,0,1,32-3.836a3.8,3.8,0,0,1,2.427-.751,2.844,2.844,0,0,1,.908.174q0-1.736-1.549-1.736a2.475,2.475,0,0,0-1.829.641L31.421-6.57a3.133,3.133,0,0,1,1-.5,3.888,3.888,0,0,1,1.219-.21,3.088,3.088,0,0,1,2.26.708,3.088,3.088,0,0,1,.7,2.25v2.564a1.31,1.31,0,0,0,.561,1.255V.127a2.389,2.389,0,0,1-1.158-.22A1.243,1.243,0,0,1,35.454-.821Zm-.12-2.691a4.589,4.589,0,0,0-.841-.134,2.408,2.408,0,0,0-1.569.494,1.469,1.469,0,0,0-.608,1.168q0,1.115,1.315,1.115a2.159,2.159,0,0,0,1.7-.915Zm2.8,3.085.447-1.2a3.449,3.449,0,0,0,1.709.694q1.175,0,1.175-.988,0-.708-1.135-1.215a9.336,9.336,0,0,1-1.178-.608,2.623,2.623,0,0,1-.527-.471,1.872,1.872,0,0,1-.334-.561,1.82,1.82,0,0,1-.11-.638,1.638,1.638,0,0,1,.641-1.375A2.669,2.669,0,0,1,40.5-7.284a5.386,5.386,0,0,1,1.97.494L42.1-5.615a2.429,2.429,0,0,0-1.516-.6A1.316,1.316,0,0,0,39.824-6a.637.637,0,0,0-.31.541A1.125,1.125,0,0,0,40.3-4.42l.908.414a3.189,3.189,0,0,1,1.215.868A1.925,1.925,0,0,1,42.8-1.916a1.828,1.828,0,0,1-.674,1.506,2.9,2.9,0,0,1-1.87.544A4.256,4.256,0,0,1,38.132-.427Zm7.311-9.428a.759.759,0,0,1,.558.23.752.752,0,0,1,.23.551.759.759,0,0,1-.23.558.759.759,0,0,1-.558.23.752.752,0,0,1-.551-.23.759.759,0,0,1-.23-.558.754.754,0,0,1,.227-.554A.754.754,0,0,1,45.443-9.855ZM44.749,0V-6.083h-.982V-7.151h2.25V0ZM55.572-8.58V0H54.236V-8.58H51.125v-1.2h7.7v1.2Zm8.593,5.128H59.01a2.581,2.581,0,0,0,.688,1.93,2.154,2.154,0,0,0,1.562.588,2.665,2.665,0,0,0,1.816-.634l.534.915a2.389,2.389,0,0,1-.9.507,4.876,4.876,0,0,1-1.7.28,3.164,3.164,0,0,1-2.29-.915,3.586,3.586,0,0,1-1.048-2.711A3.822,3.822,0,0,1,58.75-6.33a3.123,3.123,0,0,1,2.277-.955,3.254,3.254,0,0,1,2.4.861,2.943,2.943,0,0,1,.841,2.2A2.837,2.837,0,0,1,64.165-3.452ZM61.087-6.216a1.981,1.981,0,0,0-1.422.548,1.988,1.988,0,0,0-.621,1.3H63a1.8,1.8,0,0,0-.481-1.282A1.876,1.876,0,0,0,61.087-6.216ZM65.133-.427l.447-1.2a3.449,3.449,0,0,0,1.709.694q1.175,0,1.175-.988,0-.708-1.135-1.215a9.337,9.337,0,0,1-1.178-.608,2.623,2.623,0,0,1-.527-.471,1.872,1.872,0,0,1-.334-.561,1.819,1.819,0,0,1-.11-.638,1.638,1.638,0,0,1,.641-1.375A2.669,2.669,0,0,1,67.5-7.284a5.386,5.386,0,0,1,1.97.494l-.361,1.175a2.429,2.429,0,0,0-1.516-.6A1.316,1.316,0,0,0,66.826-6a.637.637,0,0,0-.31.541A1.125,1.125,0,0,0,67.3-4.42l.908.414a3.19,3.19,0,0,1,1.215.868A1.925,1.925,0,0,1,69.8-1.916a1.828,1.828,0,0,1-.674,1.506,2.9,2.9,0,0,1-1.87.544A4.256,4.256,0,0,1,65.133-.427Z" transform="translate(197.333 129)" fill="#fe0"/>
  </g>
</svg>
